<svg width="145" height="19" viewBox="0 0 145 19" fill="none" xmlns="http://www.w3.org/2000/svg">
<g clip-path="url(#clip0_245_698)">
<path d="M134.642 11.352H138.725C139.147 11.352 139.444 11.0577 139.444 10.6397C139.444 10.263 139.149 9.96871 138.725 9.96871H137.09C135.614 9.96871 134.39 8.79719 134.39 7.29017C134.39 5.86565 135.614 4.60889 137.09 4.60889H141.434V6.57791H137.301C136.921 6.57791 136.582 6.87217 136.582 7.24892C136.582 7.66693 136.876 7.96118 137.301 7.96118H138.936C140.412 7.96118 141.636 9.09145 141.636 10.6425C141.636 12.023 140.412 13.3238 138.936 13.3238H134.642V11.3547V11.352Z" fill="white"/>
<path d="M121.648 4.65039L119.561 10.4722L117.476 4.65039H114.995L118.378 13.3213H120.746L124.126 4.65039H121.648Z" fill="white"/>
<path d="M95.7947 9.0862C95.7947 6.44067 97.9817 4.65039 100.21 4.65039C102.75 4.65039 104.546 6.44067 104.546 9.0862V13.3185H102.359V9.0862C102.359 7.74418 101.459 6.76517 100.172 6.76517C98.9226 6.76517 97.9845 7.74143 97.9845 9.0862V13.3185H95.7975V9.0862H95.7947Z" fill="white"/>
<path d="M114.667 9.0312C114.667 9.0147 114.667 9.00095 114.667 8.98445C114.667 8.72594 114.642 8.47019 114.598 8.22544C114.251 6.06116 112.583 4.65039 110.329 4.65039C110.324 4.65039 110.318 4.65039 110.313 4.65039C110.304 4.65039 110.299 4.65039 110.291 4.65039C107.873 4.65039 105.917 6.59192 105.917 8.98445C105.917 11.377 107.876 13.3185 110.291 13.3185C111.087 13.3185 111.834 13.1068 112.478 12.7382V13.3185H114.665V9.0862C114.665 9.06695 114.665 9.05045 114.665 9.0312H114.667ZM110.293 11.1515C109.086 11.1515 108.106 10.1807 108.106 8.98445C108.106 7.78818 109.086 6.81742 110.293 6.81742C111.245 6.81742 112.056 7.42243 112.355 8.26394C112.43 8.50044 112.475 8.7562 112.48 9.0312C112.455 10.2055 111.487 11.1515 110.296 11.1515H110.293Z" fill="white"/>
<path d="M133.166 9.0312C133.166 9.0147 133.166 9.00095 133.166 8.98445C133.166 8.72594 133.141 8.47019 133.096 8.22544C132.749 6.06116 131.081 4.65039 128.828 4.65039C128.822 4.65039 128.817 4.65039 128.811 4.65039C128.803 4.65039 128.797 4.65039 128.789 4.65039C126.371 4.65039 124.415 6.59192 124.415 8.98445C124.415 11.377 126.374 13.3185 128.789 13.3185C129.585 13.3185 130.332 13.1068 130.976 12.7382V13.3185H133.163V9.0862C133.163 9.06695 133.163 9.05045 133.163 9.0312H133.166ZM128.792 11.1515C127.584 11.1515 126.605 10.1807 126.605 8.98445C126.605 7.78818 127.584 6.81742 128.792 6.81742C129.744 6.81742 130.554 7.42243 130.854 8.26394C130.929 8.50044 130.973 8.7562 130.979 9.0312C130.954 10.2055 129.985 11.1515 128.794 11.1515H128.792Z" fill="white"/>
<path d="M144.328 12.7161V12.0259H143.704V12.7161H143.032V13.3239H143.704V14.0197H144.328V13.3239H145V12.7161H144.328Z" fill="white"/>
<path d="M89.8441 2.78018C86.1056 -0.924122 80.0192 -0.924122 76.2807 2.78018C72.5422 6.48448 72.5422 12.5153 76.2807 16.2196C78.0902 18.0126 80.4993 18.9999 83.0638 18.9999C85.6283 18.9999 88.0373 18.0126 89.8469 16.2196C93.5854 12.5153 93.5854 6.48448 89.8469 2.78018H89.8441ZM90.9237 9.50127C90.9237 11.5858 90.1078 13.5438 88.6229 15.0123C87.1409 16.4809 85.1648 17.2921 83.061 17.2921C80.9572 17.2921 78.9811 16.4836 77.4991 15.0123C76.017 13.5438 75.1983 11.5858 75.1983 9.50127C75.1983 7.41674 76.0142 5.45871 77.4991 3.99019C78.9811 2.51892 80.9572 1.71041 83.061 1.71041C85.1648 1.71041 87.1409 2.51892 88.6229 3.99019C90.105 5.45871 90.9237 7.41674 90.9237 9.50127Z" fill="white"/>
<path d="M78.6065 9.0393C78.6065 6.34427 80.8352 4.521 83.1027 4.521C85.6894 4.521 87.5184 6.34427 87.5184 9.0393V13.3514H85.2897V9.0393C85.2897 7.66979 84.3738 6.67702 83.0611 6.67702C81.7483 6.67702 80.8324 7.67254 80.8324 9.0393V13.3514H78.6038V9.0393H78.6065Z" fill="white"/>
<path d="M83.408 12.7327V12.0425H82.7808V12.7327H82.1091V13.3432H82.7808V14.039H83.408V13.3432H84.0769V12.7327H83.408Z" fill="white"/>
<path d="M72.8588 16.9016C72.8588 17.6771 72.2316 18.2903 71.435 18.2903C70.6385 18.2903 70.0029 17.6771 70.0029 16.9016C70.0029 16.1261 70.6468 15.5293 71.435 15.5293C72.2233 15.5293 72.8588 16.1426 72.8588 16.9016ZM70.397 16.9098C70.397 17.4983 70.8411 17.9713 71.435 17.9713C72.029 17.9713 72.4647 17.4983 72.4647 16.9098C72.4647 16.3213 72.029 15.8483 71.435 15.8483C70.8411 15.8483 70.397 16.3213 70.397 16.9098ZM71.238 17.5863H70.8744V16.2718C70.9827 16.2553 71.1797 16.2306 71.4267 16.2306C71.707 16.2306 71.8292 16.2718 71.9207 16.3296C72.0123 16.3873 72.0678 16.4836 72.0678 16.6156C72.0678 16.7531 71.9457 16.8686 71.7709 16.9181V16.9346C71.9096 16.9841 71.9846 17.0886 72.0262 17.2701C72.0678 17.4653 72.1011 17.5396 72.1261 17.5891H71.7237C71.6821 17.5396 71.6571 17.4268 71.6238 17.2866C71.5988 17.1491 71.5239 17.0913 71.3768 17.0913H71.238V17.5891V17.5863ZM71.2463 16.8356H71.3851C71.5405 16.8356 71.6571 16.7778 71.6571 16.6651C71.6571 16.5523 71.5655 16.4863 71.4017 16.4863C71.3351 16.4863 71.2852 16.4946 71.2463 16.4946V16.8383V16.8356Z" fill="white"/>
</g>
<path d="M7.056 7.964C7.056 6.428 5.976 5.456 4.416 5.456H1.236V14H2.148V10.484H4.416C5.976 10.484 7.056 9.5 7.056 7.964ZM6.144 7.964C6.144 9.092 5.4 9.668 4.332 9.668H2.148V6.272H4.332C5.4 6.272 6.144 6.836 6.144 7.964ZM13.0334 11.048C13.0334 10.136 12.9134 9.308 12.3134 8.696C11.9054 8.288 11.3414 8.024 10.6214 8.024C9.90141 8.024 9.33741 8.288 8.92941 8.696C8.32941 9.308 8.20941 10.136 8.20941 11.048C8.20941 11.96 8.32941 12.788 8.92941 13.4C9.33741 13.808 9.90141 14.072 10.6214 14.072C11.3414 14.072 11.9054 13.808 12.3134 13.4C12.9134 12.788 13.0334 11.96 13.0334 11.048ZM12.1694 11.048C12.1694 11.708 12.1334 12.44 11.7014 12.872C11.4254 13.148 11.0414 13.304 10.6214 13.304C10.2014 13.304 9.82941 13.148 9.55341 12.872C9.12141 12.44 9.07341 11.708 9.07341 11.048C9.07341 10.388 9.12141 9.656 9.55341 9.224C9.82941 8.948 10.2014 8.792 10.6214 8.792C11.0414 8.792 11.4254 8.948 11.7014 9.224C12.1334 9.656 12.1694 10.388 12.1694 11.048ZM22.3021 8.096H21.3661L20.0221 12.836L18.4621 8.096H17.7181L16.1701 12.836L14.8141 8.096H13.8781L15.7501 14H16.5541L18.0901 9.416L19.6381 14H20.4421L22.3021 8.096ZM27.9751 11.276V10.88C27.9751 9.128 27.0751 8.024 25.5511 8.024C24.0511 8.024 23.1271 9.14 23.1271 11.048C23.1271 13.136 24.1471 14.072 25.7071 14.072C26.7151 14.072 27.2671 13.76 27.8671 13.16L27.2791 12.644C26.8111 13.112 26.4151 13.316 25.7311 13.316C24.6031 13.316 23.9911 12.572 23.9911 11.276H27.9751ZM27.1111 10.628H23.9911C24.0151 10.148 24.0391 9.968 24.1711 9.644C24.3991 9.104 24.9271 8.756 25.5511 8.756C26.1751 8.756 26.7031 9.104 26.9311 9.644C27.0631 9.968 27.0871 10.148 27.1111 10.628ZM33.7504 8.576C33.3304 8.156 32.8984 8.024 32.3344 8.024C31.6504 8.024 31.0024 8.324 30.6784 8.816V8.096H29.8144V14H30.6784V10.376C30.6784 9.476 31.2304 8.792 32.0944 8.792C32.5504 8.792 32.7904 8.9 33.1144 9.224L33.7504 8.576ZM38.979 11.276V10.88C38.979 9.128 38.079 8.024 36.555 8.024C35.055 8.024 34.131 9.14 34.131 11.048C34.131 13.136 35.151 14.072 36.711 14.072C37.719 14.072 38.271 13.76 38.871 13.16L38.283 12.644C37.815 13.112 37.419 13.316 36.735 13.316C35.607 13.316 34.995 12.572 34.995 11.276H38.979ZM38.115 10.628H34.995C35.019 10.148 35.043 9.968 35.175 9.644C35.403 9.104 35.931 8.756 36.555 8.756C37.179 8.756 37.707 9.104 37.935 9.644C38.067 9.968 38.091 10.148 38.115 10.628ZM45.1983 14V5.456H44.3343V8.78C43.8543 8.168 43.3143 8.024 42.6663 8.024C42.0663 8.024 41.5383 8.228 41.2263 8.54C40.6263 9.14 40.5063 10.124 40.5063 11.048C40.5063 11.972 40.6263 12.956 41.2263 13.556C41.5383 13.868 42.0663 14.072 42.6663 14.072C43.3143 14.072 43.8663 13.916 44.3463 13.292V14H45.1983ZM44.3343 11.048C44.3343 12.2 44.1423 13.304 42.8583 13.304C41.5743 13.304 41.3703 12.2 41.3703 11.048C41.3703 9.896 41.5743 8.792 42.8583 8.792C44.1423 8.792 44.3343 9.896 44.3343 11.048ZM55.0376 11.048C55.0376 10.124 54.9176 9.14 54.3176 8.54C54.0056 8.228 53.4776 8.024 52.8776 8.024C52.2296 8.024 51.6896 8.168 51.2096 8.78V5.456H50.3456V14H51.2096V13.292C51.6896 13.916 52.2296 14.072 52.8776 14.072C53.4776 14.072 54.0056 13.868 54.3176 13.556C54.9176 12.956 55.0376 11.972 55.0376 11.048ZM54.1736 11.048C54.1736 12.2 53.9816 13.304 52.6976 13.304C51.4136 13.304 51.2096 12.2 51.2096 11.048C51.2096 9.896 51.4136 8.792 52.6976 8.792C53.9816 8.792 54.1736 9.896 54.1736 11.048ZM61.0367 8.096H60.1007L58.4927 12.836L56.8727 8.096H55.9367L58.0607 13.88L57.6407 15.032C57.4487 15.572 57.2687 15.764 56.6687 15.764H56.4047V16.532H56.7767C57.1967 16.532 57.6167 16.424 57.9287 16.124C58.0967 15.968 58.2287 15.752 58.3487 15.428L61.0367 8.096Z" fill="#868893"/>
<defs>
<clipPath id="clip0_245_698">
<rect width="75" height="19" fill="white" transform="translate(70)"/>
</clipPath>
</defs>
</svg>
