<?xml version="1.0" encoding="UTF-8"?> <svg xmlns="http://www.w3.org/2000/svg" width="202" height="46" viewBox="0 0 202 46" fill="none"><path d="M43.6086 31.6373C45.1035 28.6473 46.2605 24.8371 46.7918 21.1731C47.4729 16.4604 47.0878 12.2149 45.6786 8.89551C44.0777 5.12735 41.14 2.48358 37.1832 1.25162L37.0739 1.21969C33.112 0.138987 28.8525 0.964218 25.6928 3.43151C23.4311 5.19626 21.7007 7.73918 20.5505 10.988L20.2999 11.6956L19.5819 11.4737C16.6357 10.5611 13.9519 10.0989 11.6061 10.0989C9.573 10.0989 7.7636 10.4468 6.2283 11.1342C4.13639 12.0704 1.39706 14.1477 0.228349 18.7277L0.154359 19.1243C-0.810879 27.4069 2.73225 34.1348 11.305 40.2946L11.4429 40.3887C16.4524 43.609 21.2887 45.246 25.8021 45.246C27.4383 45.246 29.0274 45.0241 30.5291 44.5855C35.9758 42.9955 40.3765 38.6391 43.6086 31.6373ZM25.787 39.6206C21.5796 39.6206 17.3554 37.4845 14.5539 35.6945L14.532 35.6794C5.96765 29.496 5.27483 24.2942 5.72382 20.0202L5.73895 19.9412C6.42841 17.4638 7.6627 16.6604 8.53041 16.2722C10.7367 15.2839 14.1032 15.5461 18.5359 17.0503L19.1295 17.252L19.0623 17.8739C18.8689 19.6588 18.7798 21.6017 18.7983 23.6572L24.4299 23.5329C24.4232 22.553 24.4434 21.6 24.4905 20.6908L24.5527 19.5126L25.6138 20.0302C26.4075 20.4168 27.2264 20.8303 28.0521 21.2588L28.0874 21.2773C28.4809 21.4824 28.7836 21.6404 29.0325 21.7647L31.0168 16.4554C30.8974 16.3932 30.7729 16.3293 30.6535 16.2654C29.5252 15.6772 28.0033 14.8856 26.2107 14.0587L25.5734 13.7645L25.7988 13.099C26.5958 10.746 27.7275 8.98627 29.162 7.86691C31.7483 5.85005 34.6978 6.41477 35.5403 6.63495L35.5638 6.64167C37.9651 7.4064 39.5324 8.82156 40.4976 11.0956C42.7526 16.4049 40.7229 24.8455 38.5621 29.1431L38.5133 29.2439C35.996 34.718 32.7774 38.0643 28.9534 39.182C27.9596 39.4727 26.8952 39.6206 25.7887 39.6206H25.787Z" fill="#9BD5FF"></path><path d="M74.5655 39.3246V34.1144C72.1592 37.7716 68.8514 39.8742 64.0404 39.8742C56.3723 39.8742 50.8096 34.1648 50.8096 26.5008C50.8096 18.3863 56.1217 12.2248 64.291 12.2248C68.8515 12.2248 72.4602 14.7795 74.5655 18.235V0.753906H80.2292V14.0786C80.2292 18.035 79.9786 22.1427 78.6754 26.2016C79.9786 29.958 80.2292 34.9178 80.2796 39.3246H74.5672H74.5655ZM64.291 17.7342C59.2293 17.7342 56.4715 21.7914 56.4715 26.5008C56.4715 30.8589 59.7288 34.5648 64.0387 34.5648C68.7001 34.5648 71.8581 30.358 73.2102 26.1999C71.9069 22.6435 68.7993 17.7342 64.2893 17.7342H64.291Z" fill="#043146"></path><path d="M90.0984 28.1529C90.9998 31.9093 93.4061 34.6152 97.5664 34.6152C99.9728 34.6152 102.529 33.6639 104.131 31.8605L108.441 35.2673C105.784 38.3229 101.575 39.8758 97.516 39.8758C89.5469 39.8758 84.1338 33.6639 84.1338 25.7494C84.1338 17.835 89.4964 12.1743 97.3142 12.1743C104.681 12.1743 109.943 18.5358 109.943 25.7494V28.1545H90.0967L90.0984 28.1529ZM103.782 23.0939C102.929 19.788 100.824 17.4333 97.1157 17.4333C93.1573 17.4333 91.0014 19.4367 90.1993 23.0939H103.782Z" fill="#043146"></path><path d="M123.325 34.5144L132.446 12.7256H135.804L124.628 39.3246H122.072L110.646 12.7256H113.953L123.325 34.5144Z" fill="#043146"></path><path d="M142.165 9.11878C140.862 9.11878 139.81 8.06666 139.81 6.7641C139.81 5.46155 140.862 4.40942 142.165 4.40942C143.469 4.40942 144.521 5.46155 144.521 6.7641C144.521 8.06666 143.469 9.11878 142.165 9.11878ZM143.669 39.2742H140.612V12.6248H143.669V39.2742Z" fill="#043146"></path><path d="M161.511 34.5144L170.632 12.7256H173.99L162.815 39.3246H160.259L148.832 12.7256H152.14L161.511 34.5144Z" fill="#043146"></path><path d="M175.942 25.699C175.942 17.8349 180.753 11.9238 189.123 11.9238C196.892 11.9238 201.602 18.4853 201.602 25.699V27.5024H179.099C179.75 33.3126 183.558 36.8186 189.373 36.8186C193.332 36.8186 196.54 35.2152 198.494 32.8117L200.85 34.7143C198.244 37.9699 194.184 39.8741 189.373 39.8741C181.103 39.8741 175.942 34.0135 175.942 25.699ZM179.048 24.5964H198.545C198.094 19.0366 194.384 14.9794 189.123 14.9794C183.109 14.9794 179.45 18.6853 179.05 24.5964H179.048Z" fill="#043146"></path></svg> 